<svg width="15" height="14" viewBox="0 0 15 14" fill="none" xmlns="http://www.w3.org/2000/svg">
<path d="M6.22327 1.09375C5.91077 1.40625 5.94202 1.875 6.22327 2.1875L10.0045 5.75H1.03577C0.598267 5.75 0.285767 6.09375 0.285767 6.5V7.5C0.285767 7.9375 0.598267 8.25 1.03577 8.25H10.0045L6.22327 11.8438C5.94202 12.1562 5.94202 12.625 6.22327 12.9375L6.91077 13.625C7.22327 13.9062 7.69202 13.9062 7.97327 13.625L14.067 7.53125C14.3483 7.25 14.3483 6.78125 14.067 6.46875L7.97327 0.40625C7.69202 0.125 7.22327 0.125 6.91077 0.40625L6.22327 1.09375Z" fill="white"/>
</svg>
