<svg width="14" height="15" viewBox="0 0 14 15" fill="none" xmlns="http://www.w3.org/2000/svg">
<path d="M1.09375 8.5625C1.40625 8.875 1.875 8.84375 2.1875 8.5625L5.75 4.78125L5.75 13.75C5.75 14.1875 6.09375 14.5 6.5 14.5L7.5 14.5C7.9375 14.5 8.25 14.1875 8.25 13.75L8.25 4.78125L11.8437 8.5625C12.1562 8.84375 12.625 8.84375 12.9375 8.5625L13.625 7.875C13.9062 7.5625 13.9062 7.09375 13.625 6.8125L7.53125 0.71875C7.25 0.4375 6.78125 0.4375 6.46875 0.71875L0.40625 6.8125C0.125 7.09375 0.125 7.5625 0.40625 7.875L1.09375 8.5625Z" fill="white"/>
</svg>
